<?xml version="1.0" standalone="no"?>
<!DOCTYPE svg PUBLIC "-//W3C//DTD SVG 20010904//EN"
 "http://www.w3.org/TR/2001/REC-SVG-20010904/DTD/svg10.dtd">
<svg version="1.0" xmlns="http://www.w3.org/2000/svg"
 width="242.000000pt" height="207.000000pt" viewBox="0 0 242.000000 207.000000"
 preserveAspectRatio="xMidYMid meet">

<g transform="translate(0.000000,207.000000) scale(0.100000,-0.100000)"
fill="#000000" stroke="none">
<path d="M980 1961 c-271 -58 -507 -229 -634 -462 -42 -76 -42 -79 -17 -79 13
0 30 19 51 58 131 230 352 393 613 448 88 18 266 18 354 0 261 -55 482 -218
613 -448 21 -39 38 -58 51 -58 25 0 25 3 -17 79 -192 351 -619 545 -1014 462z"/>
<path d="M590 1112 c0 -161 2 -181 18 -195 24 -22 82 -23 82 -2 0 8 -8 15 -18
15 -38 0 -42 18 -42 192 0 161 -1 168 -20 168 -19 0 -20 -7 -20 -178z"/>
<path d="M350 1276 c0 -2 -29 -87 -65 -190 -63 -182 -64 -186 -42 -186 19 0
26 9 41 55 l17 56 76 -3 76 -3 20 -52 c14 -39 25 -53 39 -53 23 0 27 -16 -47
203 -58 172 -61 177 -87 177 -16 0 -28 -2 -28 -4z m64 -141 c14 -44 26 -83 26
-88 0 -4 -30 -7 -66 -7 -49 0 -65 3 -62 13 3 6 18 49 34 94 15 45 31 79 35 75
4 -4 18 -43 33 -87z"/>
<path d="M1370 1273 c0 -4 -9 -82 -20 -173 -24 -203 -24 -200 -1 -200 16 0 20
14 31 118 21 205 19 204 69 33 40 -137 46 -152 65 -149 18 3 27 25 63 146 22
79 43 145 45 148 3 2 10 -47 17 -108 19 -180 21 -188 43 -188 17 0 19 5 15 33
-3 17 -14 103 -23 190 -17 148 -19 157 -39 157 -19 0 -27 -18 -70 -160 -26
-88 -50 -158 -53 -156 -2 3 -25 73 -51 158 -41 133 -50 153 -69 156 -12 2 -22
0 -22 -5z"/>
<path d="M1770 1250 c0 -23 4 -30 20 -30 16 0 20 7 20 30 0 23 -4 30 -20 30
-16 0 -20 -7 -20 -30z"/>
<path d="M1085 1167 c-39 -18 -55 -54 -55 -126 0 -100 19 -129 93 -146 40 -8
105 12 122 39 35 54 27 183 -14 220 -25 23 -108 30 -146 13z m109 -33 c22 -8
39 -78 31 -128 -10 -58 -29 -76 -81 -76 -57 0 -74 24 -74 105 0 79 17 105 70
105 21 0 45 -3 54 -6z"/>
<path d="M1934 1166 c-41 -18 -58 -67 -52 -152 5 -76 29 -108 88 -118 59 -9
111 12 133 54 28 53 19 163 -16 197 -31 32 -106 41 -153 19z m132 -61 c23 -57
14 -146 -19 -167 -20 -13 -82 -9 -103 6 -16 12 -19 27 -19 89 0 93 10 107 77
107 47 0 50 -2 64 -35z"/>
<path d="M759 1151 c-31 -25 -34 -98 -5 -130 16 -18 17 -21 3 -26 -21 -9 -27
-41 -12 -62 11 -15 10 -20 -6 -31 -31 -21 -23 -102 11 -119 37 -19 170 -17
198 3 47 33 52 112 9 137 -12 6 -58 14 -102 17 -72 4 -80 7 -80 25 0 17 9 21
65 26 79 7 94 13 109 45 15 34 14 65 -5 92 -15 21 -14 22 15 22 17 0 31 5 31
10 0 6 -41 10 -104 10 -87 0 -108 -3 -127 -19z m151 -30 c28 -53 -3 -101 -65
-101 -64 0 -100 64 -59 104 24 24 110 22 124 -3z m18 -227 c12 -8 22 -26 22
-39 0 -37 -35 -55 -107 -55 -55 0 -64 3 -78 24 -19 28 -7 72 22 79 42 11 120
6 141 -9z"/>
<path d="M1770 1035 c0 -128 1 -135 20 -135 19 0 20 7 20 135 0 128 -1 135
-20 135 -19 0 -20 -7 -20 -135z"/>
<path d="M310 639 c0 -24 65 -131 125 -205 197 -246 523 -381 835 -345 306 34
592 223 729 481 36 66 38 80 14 80 -12 -1 -35 -31 -66 -84 -116 -200 -299
-341 -534 -413 -79 -24 -103 -27 -243 -27 -140 0 -164 3 -243 27 -235 72 -418
213 -534 413 -31 53 -54 83 -65 84 -10 0 -18 -5 -18 -11z"/>
</g>
</svg>
