<svg version="1.0" xmlns="http://www.w3.org/2000/svg" width="322.667" height="276" viewBox="0 0 242 207"><g fill="#fff"><path d="M98 10.9c-27.1 5.8-50.7 22.9-63.4 46.2-4.2 7.6-4.2 7.9-1.7 7.9 1.3 0 3-1.9 5.1-5.8 13.1-23 35.2-39.3 61.3-44.8 8.8-1.8 26.6-1.8 35.4 0 26.1 5.5 48.2 21.8 61.3 44.8 2.1 3.9 3.8 5.8 5.1 5.8 2.5 0 2.5-.3-1.7-7.9C180.2 22 137.5 2.6 98 10.9zM59 95.8c0 16.1.2 18.1 1.8 19.5 2.4 2.2 8.2 2.3 8.2.2 0-.8-.8-1.5-1.8-1.5-3.8 0-4.2-1.8-4.2-19.2 0-16.1-.1-16.8-2-16.8s-2 .7-2 17.8zM35 79.4c0 .2-2.9 8.7-6.5 19-6.3 18.2-6.4 18.6-4.2 18.6 1.9 0 2.6-.9 4.1-5.5l1.7-5.6 7.6.3 7.6.3 2 5.2c1.4 3.9 2.5 5.3 3.9 5.3 2.3 0 2.7 1.6-4.7-20.3C40.7 79.5 40.4 79 37.8 79c-1.6 0-2.8.2-2.8.4zm6.4 14.1c1.4 4.4 2.6 8.3 2.6 8.8 0 .4-3 .7-6.6.7-4.9 0-6.5-.3-6.2-1.3.3-.6 1.8-4.9 3.4-9.4 1.5-4.5 3.1-7.9 3.5-7.5.4.4 1.8 4.3 3.3 8.7zM137 79.7c0 .4-.9 8.2-2 17.3-2.4 20.3-2.4 20-.1 20 1.6 0 2-1.4 3.1-11.8 2.1-20.5 1.9-20.4 6.9-3.3 4 13.7 4.6 15.2 6.5 14.9 1.8-.3 2.7-2.5 6.3-14.6 2.2-7.9 4.3-14.5 4.5-14.8.3-.2 1 4.7 1.7 10.8 1.9 18 2.1 18.8 4.3 18.8 1.7 0 1.9-.5 1.5-3.3-.3-1.7-1.4-10.3-2.3-19-1.7-14.8-1.9-15.7-3.9-15.7-1.9 0-2.7 1.8-7 16-2.6 8.8-5 15.8-5.3 15.6-.2-.3-2.5-7.3-5.1-15.8-4.1-13.3-5-15.3-6.9-15.6-1.2-.2-2.2 0-2.2.5zM177 82c0 2.3.4 3 2 3s2-.7 2-3-.4-3-2-3-2 .7-2 3zM108.5 90.3c-3.9 1.8-5.5 5.4-5.5 12.6 0 10 1.9 12.9 9.3 14.6 4 .8 10.5-1.2 12.2-3.9 3.5-5.4 2.7-18.3-1.4-22-2.5-2.3-10.8-3-14.6-1.3zm10.9 3.3c2.2.8 3.9 7.8 3.1 12.8-1 5.8-2.9 7.6-8.1 7.6-5.7 0-7.4-2.4-7.4-10.5 0-7.9 1.7-10.5 7-10.5 2.1 0 4.5.3 5.4.6zM193.4 90.4c-4.1 1.8-5.8 6.7-5.2 15.2.5 7.6 2.9 10.8 8.8 11.8 5.9.9 11.1-1.2 13.3-5.4 2.8-5.3 1.9-16.3-1.6-19.7-3.1-3.2-10.6-4.1-15.3-1.9zm13.2 6.1c2.3 5.7 1.4 14.6-1.9 16.7-2 1.3-8.2.9-10.3-.6-1.6-1.2-1.9-2.7-1.9-8.9 0-9.3 1-10.7 7.7-10.7 4.7 0 5 .2 6.4 3.5zM75.9 91.9c-3.1 2.5-3.4 9.8-.5 13 1.6 1.8 1.7 2.1.3 2.6-2.1.9-2.7 4.1-1.2 6.2 1.1 1.5 1 2-.6 3.1-3.1 2.1-2.3 10.2 1.1 11.9 3.7 1.9 17 1.7 19.8-.3 4.7-3.3 5.2-11.2.9-13.7-1.2-.6-5.8-1.4-10.2-1.7-7.2-.4-8-.7-8-2.5 0-1.7.9-2.1 6.5-2.6 7.9-.7 9.4-1.3 10.9-4.5 1.5-3.4 1.4-6.5-.5-9.2-1.5-2.1-1.4-2.2 1.5-2.2 1.7 0 3.1-.5 3.1-1 0-.6-4.1-1-10.4-1-8.7 0-10.8.3-12.7 1.9zm15.1 3c2.8 5.3-.3 10.1-6.5 10.1-6.4 0-10-6.4-5.9-10.4 2.4-2.4 11-2.2 12.4.3zm1.8 22.7c1.2.8 2.2 2.6 2.2 3.9 0 3.7-3.5 5.5-10.7 5.5-5.5 0-6.4-.3-7.8-2.4-1.9-2.8-.7-7.2 2.2-7.9 4.2-1.1 12-.6 14.1.9zM177 103.5c0 12.8.1 13.5 2 13.5s2-.7 2-13.5-.1-13.5-2-13.5-2 .7-2 13.5zM31 143.1c0 2.4 6.5 13.1 12.5 20.5 19.7 24.6 52.3 38.1 83.5 34.5 30.6-3.4 59.2-22.3 72.9-48.1 3.6-6.6 3.8-8 1.4-8-1.2.1-3.5 3.1-6.6 8.4-11.6 20-29.9 34.1-53.4 41.3-7.9 2.4-10.3 2.7-24.3 2.7s-16.4-.3-24.3-2.7c-23.5-7.2-41.8-21.3-53.4-41.3-3.1-5.3-5.4-8.3-6.5-8.4-1 0-1.8.5-1.8 1.1z"/></g></svg>